<svg width="71" height="29" viewBox="0 0 71 29" fill="none" xmlns="http://www.w3.org/2000/svg">
<path fill-rule="evenodd" clip-rule="evenodd" d="M16.5564 4.85684C15.87 5.67465 14.7718 6.31968 13.6736 6.22754C13.5363 5.12177 14.0739 3.94689 14.7031 3.22123C15.3895 2.38038 16.5907 1.78143 17.5631 1.73535C17.6774 2.88719 17.2313 4.016 16.5564 4.85684ZM17.5516 6.44668C16.5841 6.39061 15.7013 6.73965 14.9882 7.02158C14.5293 7.203 14.1407 7.35664 13.8451 7.35664C13.5134 7.35664 13.1087 7.19479 12.6544 7.01307C12.0591 6.77496 11.3786 6.50273 10.6649 6.51579C9.02899 6.53883 7.50751 7.47182 6.67242 8.9577C4.95646 11.9294 6.22627 16.3295 7.88502 18.7483C8.69724 19.9463 9.66962 21.2594 10.9509 21.2133C11.5145 21.1919 11.92 21.0186 12.3396 20.8393C12.8227 20.6329 13.3246 20.4185 14.1082 20.4185C14.8647 20.4185 15.3446 20.6273 15.8053 20.8278C16.2433 21.0184 16.664 21.2015 17.2885 21.1902C18.6155 21.1672 19.4506 19.9923 20.2628 18.7944C21.1393 17.5087 21.5245 16.254 21.5829 16.0635L21.5898 16.0415C21.5884 16.0401 21.5775 16.0351 21.5584 16.0263C21.2654 15.8912 19.0259 14.8589 19.0044 12.0907C18.9828 9.76718 20.7808 8.58994 21.0638 8.40462C21.081 8.39334 21.0926 8.38574 21.0979 8.38177C19.9539 6.67705 18.1693 6.49276 17.5516 6.44668ZM26.7385 21.0638V3.1066H33.4307C36.8855 3.1066 39.2993 5.50243 39.2993 9.00402C39.2993 12.5056 36.8398 14.9245 33.3392 14.9245H29.5069V21.0638H26.7385ZM29.5057 5.45515H32.6974C35.0997 5.45515 36.4725 6.74522 36.4725 9.01434C36.4725 11.2835 35.0997 12.585 32.686 12.585H29.5057V5.45515ZM48.4383 18.9089C47.7061 20.3141 46.0931 21.201 44.3543 21.201C41.7803 21.201 39.9843 19.6576 39.9843 17.3309C39.9843 15.0272 41.7231 13.7026 44.9377 13.5067L48.3925 13.2994V12.3088C48.3925 10.846 47.443 10.0512 45.7499 10.0512C44.3543 10.0512 43.3361 10.7769 43.1302 11.8827H40.6364C40.7165 9.55594 42.89 7.86273 45.83 7.86273C48.9988 7.86273 51.0579 9.5329 51.0579 12.1245V21.0628H48.4955V18.9089H48.4383ZM45.0994 19.0707C43.6237 19.0707 42.6856 18.3565 42.6856 17.2623C42.6856 16.1335 43.5894 15.4769 45.3168 15.3732L48.394 15.1774V16.191C48.394 17.8727 46.9755 19.0707 45.0994 19.0707ZM59.5591 21.7656C58.4495 24.9102 57.1797 25.9468 54.4799 25.9468C54.274 25.9468 53.5876 25.9238 53.4274 25.8777V23.7238C53.599 23.7468 54.0223 23.7698 54.2397 23.7698C55.4637 23.7698 56.1501 23.2515 56.5734 21.9038L56.825 21.1091L52.1348 8.03568H55.029L58.2893 18.6441H58.3465L61.6068 8.03568H64.421L59.5591 21.7656Z" fill="white"/>
</svg>
