<svg xmlns="http://www.w3.org/2000/svg" width="83" height="21" fill="none" viewBox="0 0 83 21"><mask id="a" width="14" height="21" x="4" y="0" maskUnits="userSpaceOnUse" style="mask-type:luminance"><path fill="#fff" d="M17.134.437H4.73v20.125h12.404z"/></mask><g fill="#fff" mask="url(#a)"><path d="M17.134 20.563h-2.121a10.4 10.4 0 0 1-4.003-.792 10.3 10.3 0 0 1-3.268-2.156 10 10 0 0 1-2.203-3.197A9.8 9.8 0 0 1 4.73 10.5a9.8 9.8 0 0 1 .81-3.916 10 10 0 0 1 2.202-3.198A10.3 10.3 0 0 1 11.01 1.23a10.4 10.4 0 0 1 4.003-.79h2.12v3.354h-2.12a6.9 6.9 0 0 0-2.625.507 6.8 6.8 0 0 0-2.222 1.458 6.7 6.7 0 0 0-1.49 2.175 6.5 6.5 0 0 0-.518 2.569 6.5 6.5 0 0 0 .518 2.568 6.6 6.6 0 0 0 1.49 2.175 6.8 6.8 0 0 0 2.222 1.458 6.9 6.9 0 0 0 2.625.507h2.12z"/><path d="M17.134 13.86h-2.23c-.9.002-1.793-.17-2.626-.508a6.8 6.8 0 0 1-2.223-1.457 6.7 6.7 0 0 1-1.49-2.176 6.5 6.5 0 0 1-.519-2.57 6.5 6.5 0 0 1 .519-2.569 6.7 6.7 0 0 1 1.49-2.175A6.8 6.8 0 0 1 12.278.947a6.9 6.9 0 0 1 2.626-.508h2.23v3.354h-2.23a3.47 3.47 0 0 0-2.424.984 3.33 3.33 0 0 0-1.006 2.373c0 .89.363 1.742 1.006 2.372a3.47 3.47 0 0 0 2.424.983h2.23z"/></g><path fill="#fff" d="M23.822 11.637V8.921c0-1.923 1.15-3.028 3.276-3.028.901 0 1.649.252 2.23.745.582.493.878 1.225.878 2.224v.12h-1.85v-.12c0-.865-.606-1.262-1.377-1.262q-1.317 0-1.317 1.19v2.98q0 1.19 1.317 1.19c.795 0 1.376-.36 1.376-1.261v-.12h1.851v.12c0 .997-.296 1.742-.878 2.235-.581.493-1.329.733-2.23.733-2.126-.001-3.276-1.104-3.276-3.03m7.451-1.284c0-1.382.985-2.33 2.74-2.33 1.757 0 2.73.95 2.73 2.33v1.935c0 1.382-.973 2.344-2.73 2.344-1.756 0-2.74-.962-2.74-2.344zm3.785 1.875V10.44c0-.517-.38-.878-1.046-.878-.7 0-1.056.385-1.056.878v1.79c0 .493.356.866 1.056.866.666-.003 1.046-.375 1.046-.868m3.003 2.259V8.165h1.685v6.322zm3.279-.001V8.164h.961l.463.589a2.53 2.53 0 0 1 1.816-.734c1.365 0 2.172.926 2.172 2.464v4.003h-1.688v-3.907c0-.673-.356-1.021-.866-1.021-.44 0-.831.204-1.175.6v4.328zm7.33-.504c-.498-.433-.759-.985-.77-1.67h1.637c.105.54.534.805 1.294.805.51 0 .819-.169.819-.445 0-.228-.178-.385-.546-.48l-1.531-.398c-1.009-.264-1.52-.829-1.52-1.706 0-1.286.927-2.065 2.529-2.065 1.53 0 2.562.853 2.61 2.2h-1.625c-.13-.457-.499-.686-1.092-.686-.523 0-.784.156-.784.457 0 .168.166.3.498.384l1.638.421c.973.252 1.46.841 1.46 1.743 0 1.31-1.01 2.091-2.611 2.091-.83-.002-1.492-.219-2.005-.65m6.004.503V6.072h3.727c1.483 0 2.373 1.022 2.373 2.645s-.889 2.632-2.373 2.632h-1.886v3.137zm1.84-4.76h1.542c.463 0 .855-.336.855-1.01 0-.672-.392-1.02-.855-1.02h-1.541zm9.234 4.759-.463-.589c-.51.493-1.14.733-1.888.733-.593 0-1.09-.168-1.495-.492q-.605-.506-.605-1.407c0-1.31.843-2.055 2.516-2.055h1.222v-.348c0-.517-.297-.77-.902-.77s-.902.205-.902.625h-1.65c0-1.31.88-2.163 2.552-2.163s2.587.854 2.587 2.188v4.278zm-.713-1.911v-.697h-1.222c-.558 0-.83.204-.83.625 0 .37.26.625.77.625.523 0 .95-.18 1.282-.553m3.218 1.913V8.165h1.686v6.322zm7.606-.001-.463-.59a2.56 2.56 0 0 1-1.83.734c-1.282 0-2.22-.795-2.22-2.32v-1.983c0-.757.214-1.334.628-1.719.415-.396.95-.589 1.59-.589s1.163.168 1.569.517V6.012h1.685v8.474zm-.725-1.996v-2.33c-.391-.397-.806-.601-1.222-.601a.86.86 0 0 0-.627.262.9.9 0 0 0-.25.638v1.73a.9.9 0 0 0 .25.64.88.88 0 0 0 .627.261c.416.001.83-.203 1.222-.6"/></svg>