<svg xmlns="http://www.w3.org/2000/svg" width="53" height="21" fill="none" viewBox="0 0 53 21"><path fill="#fff" fill-rule="evenodd" d="M43.793 13.257h.03l2.526-6.338h1.774l-5.456 12.706h-1.684l2.029-4.445-3.58-8.261h1.775zM35.257 6.63c1.206 0 2.16.328 2.86.976s1.043 1.554 1.043 2.696v5.442H37.6V14.52h-.07c-.68 1.008-1.573 1.512-2.699 1.512-.953 0-1.764-.288-2.402-.864a2.75 2.75 0 0 1-.964-2.16c0-.916.345-1.636 1.024-2.181.68-.545 1.592-.813 2.728-.813.973 0 1.765.185 2.393.534v-.38c0-.565-.244-1.1-.67-1.471a2.35 2.35 0 0 0-1.57-.607q-1.37 0-2.161 1.172l-1.44-.915c.771-1.142 1.937-1.717 3.489-1.717M27.52 2.843a3.85 3.85 0 0 1 2.798 1.122 3.763 3.763 0 0 1 .183 5.267l-.183.186c-.76.73-1.693 1.1-2.798 1.1h-2.7v5.227h-1.633V2.844zm7.95 8.507c-.66 0-1.217.165-1.663.484-.436.319-.66.72-.66 1.204 0 .432.203.833.538 1.08.365.288.81.443 1.267.433.69 0 1.35-.278 1.836-.772.538-.514.812-1.122.812-1.821-.507-.412-1.217-.618-2.13-.608M24.82 8.935h2.739a2.12 2.12 0 0 0 1.613-.669 2.293 2.293 0 0 0-.05-3.199 2.2 2.2 0 0 0-1.563-.639H24.82z" clip-rule="evenodd"/><path fill="#fff" d="M19.184 9.388c0-.505-.04-1.009-.122-1.502h-6.885v2.85h3.944a3.43 3.43 0 0 1-1.46 2.252v1.852h2.353c1.379-1.286 2.17-3.19 2.17-5.452"/><path fill="#fff" d="M12.178 16.63c1.967 0 3.63-.659 4.837-1.79l-2.353-1.852c-.66.452-1.5.71-2.484.71-1.907 0-3.52-1.307-4.097-3.056H5.657v1.913a7.28 7.28 0 0 0 6.52 4.075"/><path fill="#fff" d="M8.081 10.643a4.53 4.53 0 0 1 0-2.84V5.9H5.658a7.44 7.44 0 0 0 0 6.647z"/><path fill="#fff" d="M12.178 4.748a3.9 3.9 0 0 1 2.798 1.11l2.09-2.119a7 7 0 0 0-4.888-1.924c-2.759 0-5.284 1.585-6.52 4.085L8.08 7.813c.578-1.759 2.19-3.065 4.097-3.065"/></svg>