<svg xmlns="http://www.w3.org/2000/svg" width="53" height="21" fill="none" viewBox="0 0 53 21"><path fill="#fff" fill-rule="evenodd" d="M12.369 3.629c-.513.61-1.333 1.092-2.154 1.024-.102-.826.3-1.704.77-2.246.512-.628 1.41-1.076 2.136-1.11.085.86-.248 1.704-.752 2.332m.743 1.187c-.722-.042-1.382.22-1.915.43-.342.135-.633.25-.853.25-.248 0-.55-.12-.89-.257-.445-.177-.953-.38-1.486-.371-1.222.017-2.359.714-2.983 1.824-1.282 2.22-.333 5.507.906 7.314.607.895 1.333 1.876 2.29 1.841.422-.016.724-.145 1.038-.279.36-.154.736-.314 1.321-.314.565 0 .924.156 1.268.306.327.142.641.279 1.108.27.991-.017 1.615-.895 2.222-1.79.655-.96.942-1.897.986-2.04l.005-.016-.023-.011c-.22-.101-1.892-.873-1.908-2.94-.016-1.736 1.327-2.616 1.538-2.754l.026-.017c-.855-1.274-2.188-1.411-2.65-1.446m6.862 10.919V2.32h5c2.58 0 4.384 1.79 4.384 4.406s-1.838 4.423-4.453 4.423h-2.862v4.586zm2.068-11.659h2.384c1.795 0 2.82.964 2.82 2.659s-1.025 2.667-2.828 2.667h-2.376zm14.143 10.05c-.547 1.05-1.752 1.712-3.05 1.712-1.924 0-3.265-1.153-3.265-2.891 0-1.721 1.299-2.71 3.7-2.857l2.58-.155v-.74c0-1.092-.708-1.686-1.973-1.686-1.043 0-1.803.542-1.957 1.368h-1.863c.06-1.738 1.683-3.003 3.88-3.003 2.367 0 3.905 1.248 3.905 3.184v6.677h-1.914v-1.61zm-2.494.12c-1.103 0-1.804-.534-1.804-1.351 0-.843.676-1.334 1.966-1.411l2.299-.147v.758c0 1.256-1.06 2.15-2.461 2.15m10.802 2.014c-.83 2.349-1.778 3.123-3.794 3.123-.154 0-.667-.017-.787-.051v-1.61c.129.018.445.035.607.035.914 0 1.427-.387 1.743-1.394l.188-.593-3.503-9.767h2.162l2.435 7.925h.043l2.435-7.925h2.103z" clip-rule="evenodd"/></svg>