<svg width="71" height="29" viewBox="0 0 71 29" fill="none" xmlns="http://www.w3.org/2000/svg">
<path fill-rule="evenodd" clip-rule="evenodd" d="M58.6221 17.7432H58.6631L62.043 9.25979H64.4189L57.1152 26.2676H54.8623L57.5771 20.3184L52.7852 9.25979H55.1611L58.6221 17.7432ZM47.1953 8.87307C48.8106 8.87308 50.0868 9.31405 51.0234 10.1817C51.96 11.0493 52.4219 12.2614 52.4219 13.7901V21.0752H50.3311V19.4365H50.2363C49.3268 20.7862 48.1318 21.461 46.625 21.461C45.3491 21.4609 44.2634 21.0749 43.4082 20.3037C42.5666 19.5877 42.0911 18.5276 42.1182 17.4121C42.1182 16.1865 42.5798 15.2221 43.4893 14.4922C44.3987 13.7624 45.6204 13.4044 47.1406 13.4043C48.4438 13.4043 49.5031 13.6519 50.3447 14.1201V13.6114C50.3447 12.8539 50.0184 12.1374 49.4482 11.6416C48.8646 11.1184 48.1184 10.8292 47.3447 10.8291C46.123 10.8291 45.159 11.3528 44.4531 12.3994L42.5254 11.1729C43.557 9.6443 45.1185 8.87307 47.1953 8.87307ZM36.8369 3.80569C38.2349 3.77826 39.5922 4.31523 40.583 5.30667C42.5648 7.17959 42.6867 10.333 40.8271 12.3574L40.583 12.6055C39.565 13.5832 38.3163 14.079 36.8369 14.0791H33.2256V21.0752H31.04V3.80569H36.8369ZM47.4805 15.1944C46.5981 15.1944 45.8512 15.415 45.2539 15.8418C44.6702 16.2687 44.3712 16.806 44.3711 17.4531C44.3711 18.0316 44.6428 18.5689 45.0908 18.8994C45.5796 19.285 46.1772 19.4913 46.7881 19.4776C47.7111 19.4775 48.5935 19.1062 49.2451 18.4453C49.9647 17.7567 50.3311 16.9433 50.3311 16.0069C49.6523 15.4562 48.702 15.1806 47.4805 15.1944ZM33.2256 11.959H36.8916C37.706 11.9864 38.4932 11.6556 39.0498 11.0635C40.1902 9.86539 40.1635 7.93714 38.9824 6.7803C38.4259 6.22951 37.6789 5.92687 36.8916 5.92678H33.2256V11.959Z" fill="white"/>
<path d="M25.6807 12.5644C25.6807 11.8896 25.6264 11.2148 25.5178 10.5537H16.3008V14.3685H21.5812C21.3641 15.5942 20.6582 16.6959 19.6265 17.3845V19.8635H22.7758C24.6219 18.142 25.6807 15.5942 25.6807 12.5644Z" fill="white"/>
<path d="M16.3021 22.2603C18.9356 22.2603 21.1618 21.3789 22.7771 19.864L19.6279 17.3851C18.7455 17.9911 17.6188 18.3354 16.3021 18.3354C13.7501 18.3354 11.5918 16.5863 10.818 14.2451H7.57373V16.8067C9.22982 20.1532 12.6099 22.2603 16.3021 22.2603Z" fill="white"/>
<path d="M10.819 14.2453C10.4117 13.0196 10.4117 11.6837 10.819 10.4443V7.89648H7.57419C6.17579 10.6922 6.17579 13.9974 7.57419 16.7931L10.819 14.2453Z" fill="white"/>
<path d="M16.3021 6.3533C17.7003 6.32576 19.0442 6.86286 20.0487 7.84066L22.845 5.00366C21.0667 3.3235 18.7319 2.40079 16.3021 2.42833C12.6099 2.42833 9.22982 4.54919 7.57373 7.89575L10.818 10.4573C11.5918 8.10233 13.7501 6.3533 16.3021 6.3533Z" fill="white"/>
</svg>
