<svg width="71" height="29" viewBox="0 0 71 29" fill="none" xmlns="http://www.w3.org/2000/svg">
<path d="M42.71 2.63965C45.6218 2.71261 48.2697 3.83655 50.2793 5.6416C50.5563 5.89041 50.8215 6.15205 51.0732 6.42578C51.5772 6.97371 52.0288 7.5699 52.4199 8.20605C52.6153 8.52376 52.7957 8.85168 52.96 9.18848C53.1244 9.52566 53.273 9.87217 53.4043 10.2266C53.5355 10.5807 53.6499 10.9432 53.7461 11.3125C53.8424 11.6822 53.9203 12.0594 53.9795 12.4424C54.0682 13.0164 54.1142 13.6046 54.1143 14.2031C54.1142 14.8018 54.0683 15.3907 53.9795 15.9648C53.8019 17.1133 53.453 18.2066 52.96 19.2178C52.7955 19.5549 52.6145 19.8832 52.4189 20.2012C50.3658 23.5395 46.6504 25.7693 42.4082 25.7695C42.2269 25.7695 42.0464 25.7659 41.8672 25.7578C39.1801 25.6367 36.7311 24.6176 34.8145 23.001C32.7702 24.7251 30.12 25.7693 27.2217 25.7695C20.7568 25.7695 15.5158 20.591 15.5156 14.2031C15.516 7.81539 20.7569 2.63574 27.2217 2.63574C30.1197 2.63593 32.7703 3.67949 34.8145 5.40332C36.8588 3.67947 39.51 2.63574 42.4082 2.63574C42.509 2.63575 42.6098 2.63714 42.71 2.63965ZM34.8145 5.40332C32.2989 7.52484 30.7021 10.6791 30.7021 14.2031C30.7023 17.7268 32.2993 20.8796 34.8145 23.001C37.3297 20.8795 38.9266 17.7269 38.9268 14.2031C38.9268 10.679 37.3301 7.52484 34.8145 5.40332Z" fill="white"/>
</svg>
