<svg xmlns="http://www.w3.org/2000/svg" width="53" height="21" fill="none" viewBox="0 0 53 21"><path fill="#fff" d="M31.682 1.969c4.83 0 8.745 3.868 8.745 8.64s-3.916 8.64-8.745 8.64h-.001a8.77 8.77 0 0 1-5.672-2.066c1.879-1.585 3.072-3.94 3.072-6.573a8.58 8.58 0 0 0-3.072-6.574c-1.88 1.585-3.073 3.942-3.073 6.574a8.56 8.56 0 0 0 2.728 6.266l.345.307a8.77 8.77 0 0 1-5.671 2.067c-4.83 0-8.745-3.869-8.745-8.64 0-4.773 3.916-8.641 8.745-8.641 2.164 0 4.144.779 5.67 2.066a8.77 8.77 0 0 1 5.673-2.066"/></svg>