<svg width="71" height="29" viewBox="0 0 71 29" fill="none" xmlns="http://www.w3.org/2000/svg">
<path fill-rule="evenodd" clip-rule="evenodd" d="M22.0362 22.01H17.5506L14.187 8.80012C14.0273 8.19246 13.6884 7.65526 13.1897 7.40207C11.9453 6.7658 10.574 6.25942 9.07812 6.00403V5.49545H16.304C17.3013 5.49545 18.0493 6.25942 18.1739 7.14668L19.9192 16.6754L24.4025 5.49545H28.7634L22.0362 22.01ZM31.2573 22.01H27.021L30.5093 5.49545H34.7456L31.2573 22.01ZM40.2253 10.0711C40.35 9.18167 41.0979 8.67309 41.9705 8.67309C43.3418 8.54539 44.8355 8.80079 46.0821 9.43486L46.8301 5.8792C45.5835 5.37062 44.2122 5.11523 42.9678 5.11523C38.8562 5.11523 35.8644 7.40274 35.8644 10.5775C35.8644 12.9927 37.9836 14.2609 39.4795 15.0248C41.0979 15.7866 41.7212 16.2952 41.5966 17.0569C41.5966 18.1996 40.35 18.7082 39.1055 18.7082C37.6096 18.7082 36.1137 18.3273 34.7446 17.691L33.9967 21.2489C35.4926 21.883 37.111 22.1383 38.6069 22.1383C43.2171 22.2638 46.0821 19.9785 46.0821 16.5484C46.0821 12.2287 40.2253 11.9756 40.2253 10.0711ZM60.9081 22.01L57.5445 5.49545H53.9316C53.1836 5.49545 52.4356 6.00403 52.1863 6.7658L45.9577 22.01H50.3186L51.189 19.597H56.5472L57.0459 22.01H60.9081ZM54.5541 9.94411L55.7985 16.1682H52.3102L54.5541 9.94411Z" fill="white"/>
</svg>
