<svg xmlns="http://www.w3.org/2000/svg" width="53" height="21" fill="none" viewBox="0 0 53 21"><path fill="#fff" fill-rule="evenodd" d="M16.461 16.444h-3.35l-2.513-9.868c-.12-.454-.373-.855-.745-1.044A10.7 10.7 0 0 0 6.78 4.487v-.38h5.398c.745 0 1.304.571 1.397 1.234l1.304 7.118 3.35-8.351h3.257zm6.888 0h-3.164L22.79 4.107h3.164zm6.7-8.92c.094-.664.652-1.044 1.304-1.044 1.025-.095 2.14.096 3.072.57l.559-2.657a7.8 7.8 0 0 0-2.886-.57c-3.071 0-5.306 1.708-5.306 4.08 0 1.804 1.583 2.752 2.7 3.322 1.21.57 1.675.95 1.582 1.518 0 .854-.931 1.234-1.86 1.234-1.118 0-2.236-.285-3.259-.76l-.558 2.658c1.117.474 2.326.664 3.444.664 3.444.094 5.584-1.613 5.584-4.176 0-3.227-4.375-3.416-4.375-4.838m15.451 8.92L42.988 4.107h-2.7c-.558 0-1.117.38-1.303.95l-4.653 11.387h3.258l.65-1.802h4.003l.372 1.802zM40.752 7.43l.93 4.65h-2.606z" clip-rule="evenodd"/></svg>